<svg width="16" height="16" viewBox="0 0 16 16" fill="none" xmlns="http://www.w3.org/2000/svg">
<path fill-rule="evenodd" clip-rule="evenodd" d="M2.38588 2.81463C5.28549 -0.0490507 9.98718 -0.0490507 12.8868 2.81463C15.7864 5.67832 15.7864 10.3218 12.8868 13.1854C9.98718 16.0491 5.28549 16.0491 2.38588 13.1854C-0.513719 10.3218 -0.513719 5.67832 2.38588 2.81463ZM11.9321 3.75744C9.55977 1.41446 5.71289 1.41446 3.34052 3.75744C0.968146 6.10043 0.968146 9.89965 3.34052 12.2426C5.71289 14.5856 9.55977 14.5856 11.9321 12.2426C14.3045 9.89965 14.3045 6.10043 11.9321 3.75744ZM5.25008 5.64259C5.51371 5.38226 5.94112 5.3823 6.20471 5.64267L7.63633 7.05681L9.06796 5.64267C9.33155 5.3823 9.75895 5.38226 10.0226 5.64259C10.2862 5.90292 10.2863 6.32503 10.0227 6.5854L8.59089 7.9997L10.0227 9.41401C10.2863 9.67438 10.2862 10.0965 10.0226 10.3568C9.75895 10.6171 9.33155 10.6171 9.06796 10.3567L7.63633 8.9426L6.20471 10.3567C5.94112 10.6171 5.51371 10.6171 5.25008 10.3568C4.98644 10.0965 4.9864 9.67438 5.24999 9.41401L6.68178 7.9997L5.24999 6.5854C4.9864 6.32503 4.98644 5.90292 5.25008 5.64259Z" fill="white"/>
</svg>
