<svg width="70" height="71" viewBox="0 0 70 71" fill="none" xmlns="http://www.w3.org/2000/svg">
<rect y="0.352905" width="70" height="70" rx="10" fill="#2E62D9"/>
<g clip-path="url(#clip0_357_195961)">
<path fill-rule="evenodd" clip-rule="evenodd" d="M38.5725 14.0571C39.0907 13.5389 39.7935 13.2478 40.5263 13.2478H55.2632C55.996 13.2478 56.6988 13.5389 57.217 14.0571C57.7352 14.5753 58.0263 15.2781 58.0263 16.011V25.2215C58.0263 25.9543 57.7352 26.6571 57.217 27.1753C56.6988 27.6935 55.996 27.9846 55.2632 27.9846H48.8158V29.8267H51.579C52.0877 29.8267 52.5 30.2391 52.5 30.7478C52.5 31.2565 52.0877 31.6689 51.579 31.6689H44.2106C43.7019 31.6689 43.2895 31.2565 43.2895 30.7478C43.2895 30.2391 43.7019 29.8267 44.2106 29.8267H46.9737V27.9846H40.5263C39.7935 27.9846 39.0907 27.6935 38.5725 27.1753C38.0543 26.6571 37.7632 25.9543 37.7632 25.2215V16.011C37.7632 15.2781 38.0543 14.5753 38.5725 14.0571ZM55.2632 26.1425C55.5075 26.1425 55.7417 26.0455 55.9145 25.8728C56.0872 25.7 56.1842 25.4658 56.1842 25.2215V16.011C56.1842 15.7667 56.0872 15.5324 55.9145 15.3597C55.7417 15.1869 55.5075 15.0899 55.2632 15.0899H40.5263C40.2821 15.0899 40.0478 15.1869 39.8751 15.3597C39.7023 15.5324 39.6053 15.7667 39.6053 16.011V25.2215C39.6053 25.4658 39.7023 25.7 39.8751 25.8728C40.0478 26.0455 40.2821 26.1425 40.5263 26.1425H55.2632Z" fill="white"/>
</g>
<path fill-rule="evenodd" clip-rule="evenodd" d="M47 37.3529C40.9247 37.3529 36 42.2776 36 48.3529C36 54.4282 40.9247 59.3529 47 59.3529C53.0753 59.3529 58 54.4282 58 48.3529C58 42.2776 53.0753 37.3529 47 37.3529ZM38 48.3529C38 43.3822 42.0293 39.3529 47 39.3529C51.9707 39.3529 56 43.3822 56 48.3529C56 53.3236 51.9707 57.3529 47 57.3529C42.0293 57.3529 38 53.3236 38 48.3529ZM48 42.3529C48 41.8006 47.5523 41.3529 47 41.3529C46.4477 41.3529 46 41.8006 46 42.3529V48.3529C46 48.7317 46.214 49.0779 46.5528 49.2473L50.5528 51.2473C51.0468 51.4943 51.6474 51.2941 51.8944 50.8001C52.1414 50.3061 51.9412 49.7055 51.4472 49.4585L48 47.7349V42.3529Z" fill="white"/>
<path fill-rule="evenodd" clip-rule="evenodd" d="M16.579 11.4055C17.0877 11.4055 17.5001 11.8179 17.5001 12.3266V13.2476H23.0264V12.3266C23.0264 11.8179 23.4388 11.4055 23.9475 11.4055C24.4562 11.4055 24.8685 11.8179 24.8685 12.3266V13.2476H26.7106C27.4435 13.2476 28.1463 13.5387 28.6645 14.0569C29.1827 14.5751 29.4738 15.2779 29.4738 16.0108V28.9055C29.4738 29.6384 29.1827 30.3412 28.6645 30.8594C28.1463 31.3776 27.4435 31.6687 26.7106 31.6687H13.8159C13.0831 31.6687 12.3802 31.3776 11.862 30.8594C11.3439 30.3412 11.0527 29.6384 11.0527 28.9055V16.0108C11.0527 15.2779 11.3439 14.5751 11.862 14.0569C12.3802 13.5387 13.0831 13.2476 13.8159 13.2476H15.658V12.3266C15.658 11.8179 16.0704 11.4055 16.579 11.4055ZM15.658 15.0897H13.8159C13.5716 15.0897 13.3373 15.1868 13.1646 15.3595C12.9919 15.5322 12.8948 15.7665 12.8948 16.0108V18.7739H27.6317V16.0108C27.6317 15.7665 27.5346 15.5322 27.3619 15.3595C27.1892 15.1868 26.9549 15.0897 26.7106 15.0897H24.8685V16.0108C24.8685 16.5195 24.4562 16.9318 23.9475 16.9318C23.4388 16.9318 23.0264 16.5195 23.0264 16.0108V15.0897H17.5001V16.0108C17.5001 16.5195 17.0877 16.9318 16.579 16.9318C16.0704 16.9318 15.658 16.5195 15.658 16.0108V15.0897ZM27.6317 20.616H12.8948V28.9055C12.8948 29.1498 12.9919 29.3841 13.1646 29.5568C13.3373 29.7295 13.5716 29.8266 13.8159 29.8266H26.7106C26.9549 29.8266 27.1892 29.7295 27.3619 29.5568C27.5346 29.3841 27.6317 29.1498 27.6317 28.9055V20.616Z" fill="white"/>
<path fill-rule="evenodd" clip-rule="evenodd" d="M13.7038 39.8464C14.222 39.3282 14.9249 39.0371 15.6577 39.0371H24.8682C25.6011 39.0371 26.3039 39.3282 26.8221 39.8464C27.3403 40.3646 27.6314 41.0674 27.6314 41.8003V56.5371C27.6314 57.2699 27.3403 57.9728 26.8221 58.491C26.3039 59.0091 25.6011 59.3003 24.8682 59.3003H15.6577C14.9249 59.3003 14.222 59.0091 13.7038 58.491C13.1856 57.9728 12.8945 57.2699 12.8945 56.5371V41.8003C12.8945 41.0674 13.1856 40.3646 13.7038 39.8464ZM15.6577 40.8792C15.4134 40.8792 15.1791 40.9763 15.0064 41.149C14.8337 41.3217 14.7366 41.556 14.7366 41.8003V56.5371C14.7366 56.7814 14.8337 57.0157 15.0064 57.1884C15.1791 57.3611 15.4134 57.4582 15.6577 57.4582H24.8682C25.1125 57.4582 25.3468 57.3611 25.5195 57.1884C25.6922 57.0157 25.7893 56.7814 25.7893 56.5371V41.8003C25.7893 41.556 25.6922 41.3217 25.5195 41.149C25.3468 40.9763 25.1125 40.8792 24.8682 40.8792H15.6577ZM19.3419 54.695C19.3419 54.1863 19.7543 53.774 20.263 53.774H20.2722C20.7808 53.774 21.1932 54.1863 21.1932 54.695C21.1932 55.2037 20.7808 55.6161 20.2722 55.6161H20.263C19.7543 55.6161 19.3419 55.2037 19.3419 54.695Z" fill="white"/>
<defs>
<clipPath id="clip0_357_195961">
<rect width="22.1053" height="22.1053" fill="white" transform="translate(36.8423 11.4056)"/>
</clipPath>
</defs>
</svg>
